Coordinates
version=1
nRows=16
nColumns=40
inDegrees=yes

Units are S.I. units (second, meters, Newtons, ...)
Angles are in degrees.

endheader
time	pelvis_tilt	pelvis_list	pelvis_rotation	pelvis_tx	pelvis_ty	pelvis_tz	hip_flexion_r	hip_adduction_r	hip_rotation_r	knee_angle_r	knee_angle_r_beta	ankle_angle_r	subtalar_angle_r	mtp_angle_r	hip_flexion_l	hip_adduction_l	hip_rotation_l	knee_angle_l	knee_angle_l_beta	ankle_angle_l	subtalar_angle_l	mtp_angle_l	lumbar_extension	lumbar_bending	lumbar_rotation	arm_flex_r	arm_add_r	arm_rot_r	elbow_flex_r	pro_sup_r	wrist_flex_r	wrist_dev_r	arm_flex_l	arm_add_l	arm_rot_l	elbow_flex_l	pro_sup_l	wrist_flex_l	wrist_dev_l
     13.78750000	     -5.38171487	     -4.65995219	      3.31982240	      0.82070052	      0.93013784	      0.50358276	     11.25332836	      4.13743692	    -13.78069191	     16.06451222	     16.06451222	     11.62440409	     -0.44691466	     -2.33511088	     33.29666853	     -9.87355118	      2.49469457	     46.71914090	     46.71914090	     11.60232050	    -18.45814505	     14.47702925	     -9.89619562	      6.03299585	      2.38234495	     25.79896689	    -20.63672910	     -0.07839574	     75.21804895	     44.81384085	      0.00000000	      0.00000000	     -1.63916559	     -9.41106981	     -1.38607744	     24.61657410	     46.52309172	      0.00000000	      0.00000000
     13.80100000	     -5.53789760	     -4.58725378	      3.61979775	      0.81890818	      0.92986946	      0.50322915	     10.95702358	      4.04420790	    -14.03256169	     15.88413911	     15.88413911	     11.89568117	     -0.31588830	     -2.42815983	     33.59463836	     -9.38704057	      2.68511539	     42.70276755	     42.70276755	     10.93847981	    -18.13905934	     12.48936125	     -9.99682198	      6.02166557	      2.50403761	     27.29653901	    -21.01246542	     -0.00366619	     78.83934330	     44.73251425	      0.00000000	      0.00000000	     -2.86482384	     -9.47216732	     -1.38259813	     25.04272622	     46.46161846	      0.00000000	      0.00000000
     13.81450000	     -5.69644984	     -4.44934696	      3.89018338	      0.81711100	      0.92953660	      0.50276186	     10.69365427	      3.89662223	    -14.09409491	     15.76364472	     15.76364472	     12.19543312	     -0.44611670	     -2.49960850	     33.81433761	     -8.78612916	      2.94516067	     38.71350027	     38.71350027	     10.98137096	    -17.40506738	     12.54912212	    -10.00281974	      5.91098538	      2.49896077	     29.28685820	    -20.86042237	     -0.23407237	     80.58090250	     44.69859329	      0.00000000	      0.00000000	     -3.82827509	     -9.51451189	     -1.32272185	     24.74023172	     46.42596271	      0.00000000	      0.00000000
     13.82800000	     -5.87162771	     -4.43935979	      4.18049541	      0.81534933	      0.92887926	      0.50215561	     10.49407329	      3.83575896	    -14.36145892	     15.73968835	     15.73968835	     12.58556154	     -0.31909145	     -2.53379669	     33.95810809	     -8.32518882	      3.24840460	     34.63570925	     34.63570925	     10.14963129	    -16.53918660	     10.34656356	    -10.06184608	      5.98142609	      2.63870475	     30.79756543	    -21.11854341	     -0.17353581	     83.81694538	     44.64116969	      0.00000000	      0.00000000	     -5.01103609	     -9.52505668	     -1.05104566	     25.50798623	     46.31439708	      0.00000000	      0.00000000
     13.84150000	     -6.01966474	     -4.37589287	      4.40418649	      0.81369577	      0.92824848	      0.50152390	     10.26357663	      3.74893947	    -14.39693097	     15.72229819	     15.72229819	     12.93577714	     -0.43697365	     -2.63850367	     34.06997167	     -7.87752964	      3.39616821	     30.88357344	     30.88357344	     10.24653399	    -15.00613584	     10.51524335	    -10.05354037	      5.95940137	      2.66081249	     32.72568052	    -20.84584856	     -0.32646964	     85.47416649	     44.60795383	      0.00000000	      0.00000000	     -5.89444014	     -9.52205288	     -0.96294943	     25.26810173	     46.27701111	      0.00000000	      0.00000000
     13.85500000	     -6.14253539	     -4.37578266	      4.64518711	      0.81215692	      0.92749120	      0.50078525	     10.01088234	      3.71853223	    -14.50694966	     15.72427223	     15.72427223	     13.32465100	     -0.50066119	     -2.74075556	     34.16562868	     -7.51173489	      3.49617605	     27.42679074	     27.42679074	     10.26369925	    -13.28715756	     10.59804669	    -10.05956748	      6.03810909	      2.59824998	     34.52519396	    -20.49709042	     -0.32175199	     87.48225826	     44.55878745	      0.00000000	      0.00000000	     -6.81047822	     -9.44761077	     -0.88826061	     25.23039168	     46.23959520	      0.00000000	      0.00000000
     13.86850000	     -6.25397256	     -4.39877150	      4.86290703	      0.81074394	      0.92666119	      0.49996204	      9.73184422	      3.71414635	    -14.59236195	     15.71602539	     15.71602539	     13.71904248	     -0.54304033	     -2.82140301	     34.26519491	     -7.20387663	      3.46605408	     24.36544545	     24.36544545	     10.20839751	    -11.54014712	     10.71657445	    -10.06842203	      6.12082692	      2.58417781	     36.18240941	    -20.14420960	     -0.25233321	     89.47494787	     44.50771896	      0.00000000	      0.00000000	     -7.66274836	     -9.32474309	     -0.83083235	     25.33085213	     46.20607059	      0.00000000	      0.00000000
     13.88200000	     -6.31899293	     -4.47114431	      5.06091664	      0.80955428	      0.92583789	      0.49911852	      9.37940675	      3.77268116	    -14.67942418	     15.68506183	     15.68506183	     14.12740453	     -0.56804966	     -2.87289630	     34.35166982	     -6.98585428	      3.26116421	     21.78512086	     21.78512086	     10.07658434	     -9.91030059	     10.85375490	    -10.09720821	      6.26075415	      2.55326503	     37.69710616	    -19.72503028	     -0.12901173	     91.51633565	     44.45406756	      0.00000000	      0.00000000	     -8.52173143	     -9.20362474	     -0.78703905	     25.52645543	     46.17453909	      0.00000000	      0.00000000
     13.89550000	     -6.36203881	     -4.55319426	      5.21983681	      0.80859510	      0.92503193	      0.49821316	      8.96358272	      3.85532701	    -14.71742385	     15.59679077	     15.59679077	     14.53017595	     -0.55675693	     -2.88758784	     34.43765446	     -6.80716657	      2.92220466	     19.74017419	     19.74017419	      9.87346053	     -8.50363789	     10.99578899	    -10.11805764	      6.39773137	      2.55195105	     39.05670348	    -19.24611503	      0.01884574	     93.47253707	     44.40278719	      0.00000000	      0.00000000	     -9.33720147	     -9.06039696	     -0.75290028	     25.78078624	     46.14610800	      0.00000000	      0.00000000
     13.90900000	     -6.38628930	     -4.67305651	      5.36019258	      0.80788276	      0.92426107	      0.49724685	      8.46484683	      3.98754281	    -14.75980105	     15.42338048	     15.42338048	     14.91296256	     -0.48545559	     -2.83183823	     34.56022752	     -6.69161774	      2.41068032	     18.30662803	     18.30662803	      9.56819475	     -7.37374375	     10.99848908	    -10.11168533	      6.57798158	      2.54985495	     40.23177487	    -18.73693658	      0.19549966	     95.46486644	     44.35399017	      0.00000000	      0.00000000	    -10.12673989	     -8.88854251	     -0.72417120	     26.24598063	     46.11688776	      0.00000000	      0.00000000
     13.92250000	     -6.49685602	     -4.82263729	      5.42462283	      0.80733301	      0.92334976	      0.49625670	      8.08327869	      4.14072484	    -14.73896336	     15.29534770	     15.29534770	     15.24853040	     -0.44240435	     -2.88282272	     34.79221218	     -6.60227447	      1.94989856	     17.44763629	     17.44763629	      9.20339771	     -6.88263260	     11.14941812	     -9.90998967	      6.74856617	      2.82719225	     41.33432546	    -18.41998820	      0.18638528	     96.38719739	     44.33396246	      0.00000000	      0.00000000	    -10.59840335	     -8.67965813	     -0.69799612	     26.27984915	     46.10115705	      0.00000000	      0.00000000
     13.93600000	     -6.35298540	     -4.88316494	      5.50986019	      0.80734399	      0.92293982	      0.49519290	      7.22183852	      4.25724693	    -14.77431638	     14.87234215	     14.87234215	     15.58866922	     -0.19352724	     -2.78174383	     34.57393488	     -6.51226493	      1.17494649	     16.85681421	     16.85681421	      8.73977313	     -6.22034074	     10.92473831	    -10.04430675	      6.81184051	      2.56921257	     42.06170420	    -17.41983014	      0.50463291	     98.43359222	     44.27489604	      0.00000000	      0.00000000	    -11.36277751	     -8.50322414	     -0.69269263	     26.58346799	     46.08011415	      0.00000000	      0.00000000
     13.94950000	     -6.30974089	     -5.03724567	      5.52631314	      0.80756069	      0.92230479	      0.49407898	      6.47364410	      4.44938867	    -14.81878545	     14.46803016	     14.46803016	     15.89099063	      0.14741671	     -2.71529596	     34.51403372	     -6.52284185	      0.51008621	     16.83927283	     16.83927283	      8.16757748	     -6.00425600	     10.53288786	     -9.96377313	      6.98828280	      2.63652660	     42.70948660	    -16.79422306	      0.67622667	     99.85591807	     44.23970120	      0.00000000	      0.00000000	    -11.91711863	     -8.30308555	     -0.71081812	     26.94341813	     46.06748440	      0.00000000	      0.00000000
     13.96300000	     -6.37255149	     -5.11115239	      5.40666609	      0.80802720	      0.92154050	      0.49298231	      5.91710973	      4.52066077	    -14.69546767	     14.26347928	     14.26347928	     16.18803143	      0.36262598	     -2.75502427	     34.43476596	     -6.49076348	     -0.07624952	     17.09161426	     17.09161426	      7.57255147	     -6.17205441	     10.53750003	     -9.64816628	      7.01388193	      2.97431304	     43.03356312	    -16.41976369	      0.78592083	    100.34416533	     44.22530855	      0.00000000	      0.00000000	    -12.23503617	     -8.09080343	     -0.70292431	     26.99350189	     46.05904286	      0.00000000	      0.00000000
     13.97650000	     -6.17606741	     -5.34568655	      5.39039006	      0.80910560	      0.92102201	      0.49175244	      4.80540638	      4.79381603	    -15.05223104	     13.60067257	     13.60067257	     16.51112724	      1.41503770	     -2.54614951	     33.99052218	     -6.66799397	     -0.73477225	     17.45649806	     17.45649806	      6.11687735	     -6.01865315	      7.75412137	     -9.70680923	      7.23762273	      3.05000291	     43.02150668	    -15.87210688	      1.00626925	    102.51682334	     44.20594100	      0.00000000	      0.00000000	    -13.11479033	     -8.01058127	     -0.90830537	     28.63527441	     46.05583068	      0.00000000	      0.00000000
     13.99000000	     -6.13626921	     -5.46189984	      5.24389934	      0.81019061	      0.92033790	      0.49041086	      4.02130269	      4.91066343	    -14.94483268	     13.25266639	     13.25266639	     16.76630042	      1.79490353	     -2.55664802	     33.64606830	     -6.69095402	     -1.02811642	     18.08085037	     18.08085037	      5.46956913	     -6.31884288	      7.68123985	     -9.46295136	      7.31112220	      3.18091725	     43.05025765	    -15.26404123	      1.21543226	    102.97790789	     44.19121070	      0.00000000	      0.00000000	    -13.34125896	     -7.79278816	     -0.86314244	     28.61509687	     46.04343456	      0.00000000	      0.00000000
